<svg width="1200" height="1200" viewBox="0 0 1200 1200" fill="none" xmlns="http://www.w3.org/2000/svg">
  <rect width="1200" height="1200" rx="80" fill="#EAF0FF"/>
  <circle cx="600" cy="600" r="340" fill="#D9E4FF"/>
  <path d="M380 590C380 458.92 486.92 352 618 352H626C757.08 352 864 458.92 864 590V758C864 799.421 830.421 833 789 833H766C724.579 833 691 799.421 691 758V582C691 546.206 661.794 517 626 517H618C582.206 517 553 546.206 553 582V758C553 799.421 519.421 833 478 833H455C413.579 833 380 799.421 380 758V590Z" fill="#2746E8"/>
  <path d="M378 588C378 456.368 484.368 350 616 350H628C759.632 350 866 456.368 866 588" stroke="#0F172A" stroke-width="52" stroke-linecap="round"/>
  <rect x="334" y="608" width="112" height="240" rx="56" fill="#0F172A"/>
  <rect x="754" y="608" width="112" height="240" rx="56" fill="#0F172A"/>
  <rect x="354" y="630" width="72" height="196" rx="36" fill="#4763FF"/>
  <rect x="774" y="630" width="72" height="196" rx="36" fill="#4763FF"/>
  <circle cx="600" cy="760" r="26" fill="#A9C1FF"/>
</svg>
